<?xml version="1.0" encoding="UTF-8" standalone="no"?>
<!-- Created with Inkscape (http://www.inkscape.org/) -->

<svg
   xmlns:dc="http://purl.org/dc/elements/1.1/"
   xmlns:cc="http://creativecommons.org/ns#"
   xmlns:rdf="http://www.w3.org/1999/02/22-rdf-syntax-ns#"
   xmlns:svg="http://www.w3.org/2000/svg"
   xmlns="http://www.w3.org/2000/svg"
   xmlns:sodipodi="http://sodipodi.sourceforge.net/DTD/sodipodi-0.dtd"
   xmlns:inkscape="http://www.inkscape.org/namespaces/inkscape"
   width="44mm"
   height="44mm"
   viewBox="0 0 44 44"
   version="1.1"
   id="svg8"
   inkscape:version="0.92.4 (f8dce91, 2019-08-02)"
   sodipodi:docname="gnocis_icon.svg"
   inkscape:export-filename="./gnocis_icon.png"
   inkscape:export-xdpi="226.62907"
   inkscape:export-ydpi="226.62907">
  <defs
     id="defs2" />
  <sodipodi:namedview
     id="base"
     pagecolor="#ffffff"
     bordercolor="#666666"
     borderopacity="1.0"
     inkscape:pageopacity="0.0"
     inkscape:pageshadow="2"
     inkscape:zoom="1.979899"
     inkscape:cx="121.57109"
     inkscape:cy="68.091532"
     inkscape:document-units="mm"
     inkscape:current-layer="layer4"
     showgrid="false"
     inkscape:window-width="1920"
     inkscape:window-height="1052"
     inkscape:window-x="0"
     inkscape:window-y="0"
     inkscape:window-maximized="1"
     inkscape:lockguides="false"
     showguides="false"
     inkscape:snap-global="false" />
  <metadata
     id="metadata5">
    <rdf:RDF>
      <cc:Work
         rdf:about="">
        <dc:format>image/svg+xml</dc:format>
        <dc:type
           rdf:resource="http://purl.org/dc/dcmitype/StillImage" />
        <dc:title></dc:title>
      </cc:Work>
    </rdf:RDF>
  </metadata>
  <g
     inkscape:groupmode="layer"
     id="layer4"
     inkscape:label="Layer 4"
     style="display:inline"
     transform="translate(0,9)">
    <text
       xml:space="preserve"
       style="font-style:normal;font-variant:normal;font-weight:normal;font-stretch:normal;font-size:24.92133331px;line-height:1.25;font-family:Sarai;-inkscape-font-specification:Sarai;letter-spacing:0px;word-spacing:0px;display:inline;opacity:1;fill:#000000;fill-opacity:1;stroke:none;stroke-width:0.62303334"
       x="7.6670246"
       y="28.526876"
       id="text974-6-1-5"
       inkscape:export-filename="./path980-6.png"
       inkscape:export-xdpi="208"
       inkscape:export-ydpi="208"><tspan
         sodipodi:role="line"
         id="tspan972-8-2-3"
         x="7.6670246"
         y="28.526876"
         style="font-style:normal;font-variant:normal;font-weight:normal;font-stretch:normal;font-size:10.37152004px;font-family:'Emporium Thin';-inkscape-font-specification:'Emporium Thin, ';stroke-width:0.62303334">gno<tspan
   style="font-style:normal;font-variant:normal;font-weight:normal;font-stretch:normal;font-family:'Emporium Thin';-inkscape-font-specification:'Emporium Thin, ';fill:#aad400;stroke-width:0.62303334"
   id="tspan1450">cis</tspan></tspan></text>
  </g>
  <g
     inkscape:groupmode="layer"
     id="layer5"
     inkscape:label="Layer 5"
     transform="translate(0,9)">
    <path
       style="fill:#b3b3b3;stroke:#000000;stroke-width:0.26458332px;stroke-linecap:butt;stroke-linejoin:miter;stroke-opacity:1"
       d="m 14.506579,-3.4397969 11.550808,-0.629279 0.119389,15.9592819 -11.018727,1.63326 z"
       id="path953"
       inkscape:connector-curvature="0"
       sodipodi:nodetypes="ccccc"
       inkscape:export-filename="./path980-6.png"
       inkscape:export-xdpi="208"
       inkscape:export-ydpi="208" />
  </g>
  <g
     inkscape:groupmode="layer"
     id="layer3"
     inkscape:label="Layer 3"
     style="display:inline"
     transform="translate(0,9)">
    <ellipse
       style="display:inline;opacity:1;fill:#e3e2db;fill-opacity:1;stroke:#000000;stroke-width:0.41823488;stroke-linecap:round;stroke-miterlimit:4;stroke-dasharray:none;stroke-opacity:1"
       id="path833-3-5"
       cx="25.856672"
       cy="3.8906434"
       rx="5.0507078"
       ry="7.8588972"
       inkscape:export-filename="./path980-6.png"
       inkscape:export-xdpi="208"
       inkscape:export-ydpi="208" />
    <ellipse
       style="display:inline;opacity:1;fill:#e3e2db;fill-opacity:1;stroke:#000000;stroke-width:0.41823488;stroke-linecap:round;stroke-miterlimit:4;stroke-dasharray:none;stroke-opacity:1"
       id="path833-6"
       cx="14.894004"
       cy="5.0337777"
       rx="5.0507073"
       ry="8.4602537"
       inkscape:export-filename="./path980-6.png"
       inkscape:export-xdpi="208"
       inkscape:export-ydpi="208" />
    <path
       style="display:inline;opacity:1;fill:#e3e2db;stroke:#000000;stroke-width:0.11065798px;stroke-linecap:butt;stroke-linejoin:miter;stroke-opacity:1"
       d="M 9.7078455,5.3715086 19.991739,4.2536986"
       id="path856-2"
       inkscape:connector-curvature="0"
       inkscape:export-filename="./path980-6.png"
       inkscape:export-xdpi="208"
       inkscape:export-ydpi="208" />
    <path
       style="display:inline;opacity:1;fill:#e3e2db;stroke:#000000;stroke-width:0.11065798px;stroke-linecap:butt;stroke-linejoin:miter;stroke-opacity:1"
       d="M 14.402667,-3.3474321 14.849793,13.419779"
       id="path858-9"
       inkscape:connector-curvature="0"
       inkscape:export-filename="./path980-6.png"
       inkscape:export-xdpi="208"
       inkscape:export-ydpi="208" />
  </g>
  <g
     inkscape:groupmode="layer"
     id="layer2"
     inkscape:label="Layer 2"
     transform="translate(0,-253)"
     style="display:inline">
    <path
       style="display:inline;opacity:1;fill:#445500;fill-opacity:1;stroke:#000000;stroke-width:0.21725731;stroke-linecap:butt;stroke-linejoin:miter;stroke-miterlimit:4;stroke-dasharray:none;stroke-opacity:1"
       d="m 28.530592,272.11955 c 0,0 3.479618,3.54262 5.099648,4.25543 1.620037,0.71281 2.506155,1.10839 3.737383,1.82119 1.23122,0.71281 2.692967,3.89741 2.304157,4.54542 -0.388809,0.64801 -1.871377,1.33399 -2.454585,1.13958 -0.583215,-0.1944 -3.262303,-1.07478 -4.03991,-2.56521 -0.53533,-1.02603 -1.123308,-2.34737 -2.420361,-3.82271 -0.58704,-0.66773 -3.35567,-2.15808 -4.13788,-2.73946"
       id="path866-3"
       inkscape:connector-curvature="0"
       sodipodi:nodetypes="cccccssc"
       inkscape:export-filename="./path980-6.png"
       inkscape:export-xdpi="208"
       inkscape:export-ydpi="208" />
    <path
       style="display:inline;opacity:1;fill:#ffffff;fill-opacity:1;stroke:#000000;stroke-width:0.17008235px;stroke-linecap:butt;stroke-linejoin:miter;stroke-opacity:1"
       d="m 35.19513,280.44482 c 0,0 -0.120908,0.0476 -0.136101,0.30706 -0.01519,0.25951 0.04196,0.44704 0.489334,0.71917 0.250575,0.15241 0.834924,-0.0987 0.834924,-0.0987 0,0 -0.268841,-0.52297 -0.438307,-0.72632 -0.152691,-0.1527 -0.74985,-0.20125 -0.74985,-0.20125 z"
       id="path984-7"
       inkscape:connector-curvature="0"
       sodipodi:nodetypes="cccccc"
       inkscape:export-filename="./path980-6.png"
       inkscape:export-xdpi="208"
       inkscape:export-ydpi="208" />
    <path
       style="display:inline;opacity:1;fill:#008000;fill-opacity:1;stroke:#000000;stroke-width:0.10648558px;stroke-linecap:butt;stroke-linejoin:miter;stroke-opacity:1"
       d="m 35.566945,281.21159 c -0.01351,-0.30923 0.06137,-0.46269 0.06137,-0.46269"
       id="path986-5"
       inkscape:connector-curvature="0"
       sodipodi:nodetypes="cc"
       inkscape:export-filename="./path980-6.png"
       inkscape:export-xdpi="208"
       inkscape:export-ydpi="208" />
    <path
       style="display:inline;opacity:1;fill:#000000;fill-opacity:1;stroke:#000000;stroke-width:0;stroke-linecap:butt;stroke-linejoin:miter;stroke-miterlimit:4;stroke-dasharray:none;stroke-opacity:1"
       d="m 38.747081,283.41643 c 0.601913,0.46233 1.193747,0.8719 1.224139,1.46038 v 0.55838 c 0,0 0.02148,-0.62281 0.171809,-0.64427 0.150334,-0.0215 0.601333,0.45099 0.601333,0.45099 0,0 -0.495312,-0.58445 -0.794619,-0.79463 -0.140878,-0.19527 -0.268744,-0.43642 -0.493949,-0.6228 -0.33125,-0.26658 -0.515428,-0.51541 -0.515428,-0.51541"
       id="path988-3"
       inkscape:connector-curvature="0"
       sodipodi:nodetypes="cccccccc"
       inkscape:export-filename="./path980-6.png"
       inkscape:export-xdpi="208"
       inkscape:export-ydpi="208" />
    <path
       style="fill:#445500;stroke:#000000;stroke-width:0.26499999;stroke-linecap:butt;stroke-linejoin:miter;stroke-miterlimit:4;stroke-dasharray:none;stroke-opacity:1"
       d="m 21.861941,257.59599 c 0,0 -0.09449,-1.93713 2.504094,-1.98438 2.598584,-0.0472 4.028317,2.18098 5.149923,5.48065 1.212084,3.56585 0.850447,9.07144 -0.661456,11.85901 -1.511906,2.78757 -3.260047,4.016 -5.008186,3.87425 -1.74814,-0.14174 -2.740328,-1.13392 -2.740328,-1.13392 z"
       id="path865"
       inkscape:connector-curvature="0"
       sodipodi:nodetypes="ccssccc"
       inkscape:export-filename="./path980-6.png"
       inkscape:export-xdpi="208"
       inkscape:export-ydpi="208" />
    <path
       style="fill:#445500;stroke:#000000;stroke-width:0.26458332px;stroke-linecap:butt;stroke-linejoin:miter;stroke-opacity:1"
       d="m 14.45597,275.60891 c 0,0 -1.287482,0.38979 -3.200985,1.38198 -1.9135055,0.99219 -4.582962,4.34673 -4.582962,4.34673 0,0 2.0316219,-0.92132 4.771949,-1.81901 2.740327,-0.89769 4.630209,-0.0709 6.520089,-0.94495 1.889881,-0.87407 5.121704,-1.85828 6.614583,-6.28385 0.980912,-2.90786 1.234864,-5.36471 1.078225,-7.47847 -0.15664,-2.11377 -0.924324,-4.35217 -1.853052,-5.95451 -1.676828,-2.89306 -2.824748,-3.03665 -4.927241,-3.01303 -2.172301,0.0244 -3.124238,2.70405 -3.124238,2.70405 l 0.284873,0.0403 c 0,0 1.442968,0.22509 2.725505,2.41247 1.307984,2.23078 1.729061,4.01313 1.469203,7.10781 -0.259859,3.09468 -1.086681,4.46484 -1.866257,5.64602 -0.779576,1.18117 -1.511906,1.25204 -1.511906,1.25204 z"
       id="path863"
       inkscape:connector-curvature="0"
       sodipodi:nodetypes="cscsssssccccsccc"
       inkscape:export-filename="./path980-6.png"
       inkscape:export-xdpi="208"
       inkscape:export-ydpi="208" />
    <path
       style="display:inline;opacity:1;fill:none;fill-opacity:1;stroke:#000000;stroke-width:0.17008235px;stroke-linecap:butt;stroke-linejoin:miter;stroke-opacity:1"
       d="m 34.917701,280.41836 c 0.877853,0.094 1.067638,0.14207 1.20048,0.47252 0.155039,0.38571 0.366156,0.60742 0.404744,0.73765"
       id="path980-6"
       inkscape:connector-curvature="0"
       sodipodi:nodetypes="ccc"
       inkscape:export-filename="./path980-6.png"
       inkscape:export-xdpi="208"
       inkscape:export-ydpi="208" />
  </g>
</svg>
